<svg xmlns="http://www.w3.org/2000/svg" width="933.333" height="933.333" preserveAspectRatio="xMidYMid meet" version="1.0" viewBox="0 0 700 700"><metadata>Created by potrace 1.14, written by Peter Selinger 2001-2017</metadata><g fill="#000" stroke="none"><path d="M3280 6994 c-19 -2 -84 -9 -145 -14 -647 -63 -1299 -330 -1820 -746 -141 -113 -436 -408 -549 -549 -415 -519 -666 -1132 -748 -1820 -17 -144 -17 -586 0 -730 65 -545 225 -1015 499 -1465 140 -228 284 -412 487 -618 577 -588 1293 -935 2131 -1034 144 -16 586 -16 735 1 689 78 1331 348 1854 779 127 105 340 316 451 447 450 532 722 1170 807 1890 7 62 13 220 13 365 0 410 -48 716 -171 1093 -228 699 -689 1326 -1295 1758 -475 339 -1027 552 -1619 625 -117 15 -553 27 -630 18z m440 -1080 c422 -29 901 -215 1247 -483 653 -506 1004 -1271 953 -2078 -46 -721 -390 -1358 -973 -1799 -647 -490 -1538 -614 -2305 -323 -733 279 -1292 900 -1487 1652 -45 174 -63 291 -75 472 -12 201 1 259 76 325 52 45 93 60 164 60 106 0 189 -56 223 -151 9 -26 20 -110 27 -204 26 -402 158 -755 399 -1070 65 -85 223 -247 311 -318 585 -473 1394 -566 2065 -238 394 193 704 503 896 896 428 880 132 1932 -696 2475 -110 72 -299 163 -428 205 -99 33 -318 85 -359 85 -17 0 -18 -38 -18 -665 0 -366 2 -665 5 -665 2 0 61 58 131 130 143 146 186 173 273 173 67 0 124 -22 170 -66 75 -71 97 -193 50 -281 -14 -28 -148 -175 -340 -374 -174 -180 -329 -342 -345 -361 -39 -47 -116 -81 -184 -81 -106 0 -121 13 -500 404 -208 215 -355 374 -369 402 -45 84 -27 200 42 272 67 70 152 94 244 67 53 -16 69 -28 201 -158 l143 -142 -1 831 c-2 913 -5 864 60 938 73 83 116 91 400 70z" transform="translate(0.000000,700.000000) scale(0.100000,-0.100000)"/></g></svg>